<?xml version="1.0" encoding="iso-8859-1"?>
<!-- Generator: Adobe Illustrator 19.0.0, SVG Export Plug-In . SVG Version: 6.00 Build 0)  -->
<svg version="1.1" id="Capa_1" xmlns="http://www.w3.org/2000/svg" xmlns:xlink="http://www.w3.org/1999/xlink" x="0px" y="0px"
	 viewBox="0 0 60 60" style="enable-background:new 0 0 60 60;" xml:space="preserve">
<g>
	<g>
		<g>
			<path d="M34.632,47.07L34.81,47H35c7.298,0,8.996-4.175,9.064-4.353l0.084-0.218l0.175-0.166c1.789-1.644,2.69-4.191,2.678-7.57
				c-0.009-2.541-0.736-5.198-2.162-7.897C44,25.207,43,22.217,43,17c0-1.952-0.608-3.46-1.858-4.61
				c-3.103-2.854-9-2.397-9.059-2.394l-0.205,0.018l-0.195-0.065c-5.503-1.839-7.333-0.48-8.229,0.702
				c-0.817,1.079-0.486,2.901,0.753,4.148c0.692,0.696,1.25,1.474,1.789,2.225c1.495,2.084,2.148,2.75,3.577,2.072
				c1.575-0.745,4.119-1.497,5.495-1.88c0.463-0.125,0.947-0.036,1.328,0.255C36.78,17.763,37,18.207,37,18.691v2.895
				c0,0.492-0.178,0.964-0.515,1.364c-0.621,0.736-1.059,1.783-1.303,3.111c-0.12,0.656-0.48,1.198-0.98,1.576
				c0.449,0.606,0.844,1.262,1.137,1.987c0.208,0.513-0.04,1.096-0.551,1.303C34.666,30.977,34.539,31,34.414,31
				c-0.396,0-0.77-0.235-0.927-0.624c-0.385-0.949-0.963-1.771-1.669-2.445c-0.112-0.107-0.231-0.204-0.348-0.302
				c-0.104-0.087-0.211-0.171-0.32-0.252c-0.119-0.088-0.237-0.177-0.361-0.257c-0.208-0.134-0.422-0.257-0.644-0.369
				c-0.104-0.053-0.212-0.099-0.319-0.146c-0.191-0.084-0.385-0.161-0.583-0.228c-0.078-0.027-0.155-0.058-0.235-0.082
				c-0.276-0.082-0.559-0.145-0.847-0.193c-0.076-0.013-0.153-0.023-0.229-0.033C27.625,26.029,27.315,26,27,26
				c-0.32,0-0.634,0.029-0.945,0.071c-0.059,0.005-0.115,0.016-0.172,0.022c-0.658,0.105-1.29,0.301-1.878,0.579
				c-0.03,0.016-0.061,0.03-0.091,0.047c-0.158,0.077-0.305,0.172-0.457,0.261c-0.249,0.148-0.484,0.306-0.705,0.475
				c-0.968,0.743-1.756,1.73-2.238,2.921c-0.208,0.512-0.789,0.76-1.302,0.551c-0.512-0.207-0.759-0.79-0.551-1.303
				c0.293-0.722,0.686-1.376,1.134-1.981c-0.255-0.153-0.488-0.348-0.682-0.587c-2.675-3.279-5.667-4.933-9.147-5.057
				c-0.052,0-0.622-0.001-1.258-0.002C7.215,21.997,6,20.782,6,19.289v-7.268C2.234,17.035,0,23.261,0,30
				c0,11.887,6.95,22.182,17,27.034V48.7c-1.324-1.2-3-3.321-3-6.7c0-0.553,0.448-1,1-1s1,0.447,1,1
				c0,1.816,0.618,3.164,1.353,4.142l1.293,1.094C23.549,51.384,34.521,47.114,34.632,47.07z"/>
			<path d="M30,0C21.315,0,13.483,3.714,8,9.632v9.657c0,0.391,0.317,0.708,0.708,0.708c0.691,0.001,1.306,0.003,1.331,0.004
				c4.086,0.145,7.562,2.039,10.622,5.79c0.162,0.198,0.427,0.283,0.672,0.223c0.105-0.085,0.219-0.16,0.327-0.24
				c0.184-0.136,0.369-0.267,0.563-0.388c0.194-0.122,0.389-0.243,0.591-0.35c0.061-0.036,0.127-0.063,0.189-0.096
				c0.054-0.027,0.106-0.056,0.16-0.082c0.747-0.383,1.555-0.633,2.399-0.738c0.074-0.012,0.148-0.019,0.223-0.029
				c0.051-0.005,0.1-0.016,0.151-0.02c0.349-0.045,0.695-0.065,1.038-0.069C26.983,24.002,26.991,24,27,24
				c0.022,0,0.043,0.005,0.065,0.005c0.425-0.001,0.843,0.034,1.256,0.094c0.022,0.003,0.044,0.006,0.066,0.009
				c0.827,0.126,1.623,0.369,2.373,0.72c0.099,0.045,0.194,0.094,0.291,0.143c0.237,0.121,0.467,0.254,0.693,0.397
				c0.205,0.127,0.402,0.264,0.596,0.407c0.167,0.125,0.336,0.247,0.495,0.383c0.181-0.074,0.336-0.223,0.379-0.457
				c0.307-1.674,0.892-3.032,1.74-4.039l0.036-2.345c-1.251,0.36-3.306,0.992-4.563,1.588c-3.065,1.452-4.724-0.858-6.057-2.715
				c-0.493-0.688-1.003-1.397-1.583-1.98c-1.958-1.971-2.358-4.879-0.929-6.766c1.963-2.593,5.324-3.068,10.27-1.454
				c1.195-0.066,6.956-0.211,10.368,2.929C44.158,12.446,45,14.493,45,17c0,4.808,0.875,7.473,1.608,8.862
				c1.578,2.988,2.383,5.957,2.393,8.823c0.014,3.87-1.051,6.862-3.166,8.901c-0.505,1.085-2.976,5.344-10.648,5.412
				c-1.418,0.536-10.192,3.633-15.95,0.945C19.158,49.964,19.082,50,19,50v7.902C22.409,59.25,26.117,60,30,60
				c16.542,0,30-13.458,30-30S46.542,0,30,0z"/>
		</g>
	</g>
</g>
<g>
</g>
<g>
</g>
<g>
</g>
<g>
</g>
<g>
</g>
<g>
</g>
<g>
</g>
<g>
</g>
<g>
</g>
<g>
</g>
<g>
</g>
<g>
</g>
<g>
</g>
<g>
</g>
<g>
</g>
</svg>
