<svg height="60" viewBox="0 0 60 60" width="60" xmlns="http://www.w3.org/2000/svg"><g id="Page-1" fill="none" fill-rule="evenodd"><g id="027---Slim-Fit" fill="rgb(0,0,0)" fill-rule="nonzero"><path id="Shape" d="m45.783 29.687c-1.14-3.464-2.491-7.473-1.218-11.088.854-2.424 2.622-4.385 3.214-6.911.4465788-2.14529387.4805167-4.35600893.1-6.514-.2199234-1.54123821-.5951663-3.05628138-1.12-4.522-.1455509-.39210696-.5197502-.65221139-.938-.652h-31.642c-.4182498-.00021139-.7924491.25989304-.938.652-.6605293 1.83927071-1.0872081 3.75428604-1.27 5.7-.2320774 1.97928569-.0772052 3.9848115.456 5.905.5336821 1.49685 1.225248 2.9326119 2.063 4.283 1.0924543 1.8762461 1.5844908 4.0419046 1.41 6.206-.2949629 2.3698909-.8585871 4.6985311-1.68 6.941-2.758 8.379-9.076 15.293-1.924 29.756.1691011.3422243.5182791.5583266.9.557h33.615c.3817209.0013266.7308989-.2147757.9-.557 7.133-14.435.851-21.312-1.928-29.756zm-33.1 9.19c10.193 4.163 24.448 4.164 34.642 0 .2453333.6466667.4703333 1.302.675 1.966-9.959 4.213-26.032 4.213-35.992 0 .2033333-.664.427-1.3193333.671-1.966zm3.084-24.141c3.018-.278 8.817-.736 14.233-.736s11.215.458 14.237.736c-.377.665-.71 1.292-1 1.9-8.8067053-.8395046-17.6732947-.8395046-26.48 0-.284-.608-.617-1.236-.994-1.9zm-.867-12.736h30.2c.563 1.825 1.919 7.087.2 10.828-2.671-.26-9.214-.828-15.3-.828s-12.629.568-15.3.828c-1.712-3.734-.36-9.002.2-10.828zm1.216 28.313c1.927-5.845 2.24-8.9 1.4-11.734 8.3043964-.765499 16.6616036-.765499 24.966 0-.84 2.829-.527 5.889 1.4 11.734.759 2.3 1.707 4.35 2.693 6.709-9.677 3.963-23.437 3.978-33.152 0 .984-2.352 1.935-4.407 2.694-6.709zm30.069 27.687h-15.185v-2.074c1.618528-.1641065 3.0644078-1.0831671 3.9-2.479.2426084-.4876011.0472003-1.0796251-.438-1.327-.488033-.2480667-1.0848496-.0617002-1.345.42-.696862 1.0164921-1.8899844 1.5753496-3.117 1.46-1.2184107.1105278-2.4022598-.4420624-3.1-1.447-.2468713-.4942949-.8477051-.6948713-1.342-.448s-.6948713.8477051-.448 1.342c.833542 1.3931886 2.2751208 2.3118709 3.89 2.479v2.074h-15.185c-3.041-6.386-3.246-11.081-2.333-15.207 10.434 4.28 26.608 4.278 37.036 0 .913 4.126.708 8.821-2.333 15.207z"/><path id="Shape" d="m30 38c.5522847 0 1-.4477153 1-1v-2c0-.5522847-.4477153-1-1-1s-1 .4477153-1 1v2c0 .5522847.4477153 1 1 1z"/><path id="Shape" d="m9.728 37.236c.18118881-.1932753.2789151-.4501662.272-.715l-.164-5.654c-.01574013-.5522847-.47621526-.9872401-1.0285-.9715s-.9872401.4762153-.9715 1.0285l.094 3.242-6.243-5.893c-.40151101-.3794196-1.03458038-.361511-1.414.04-.37941962.401511-.36151101 1.0345804.04 1.414l6.245 5.893-3.242.094c-.55228474.0080081-.99350811.4622153-.98549999 1.0145.00800813.5522847.46221525.9935081 1.01449999.9855h.03l5.654-.164c.26545029-.0077007.51693617-.1206715.699-.314z"/><path id="Shape" d="m58.313 28.273-6.243 5.893.094-3.242c.0156878-.5519886-.4190143-1.0122087-.971-1.028-.5465998-.0013725-.9986941.4252393-1.029.971l-.164 5.654c-.0156878.5519886.4190143 1.0122087.971 1.028l5.654.164h.03c.5522847.0080081 1.0064919-.4332153 1.0145-.9855s-.4332153-1.0064919-.9855-1.0145l-3.242-.094 6.245-5.893c.2597321-.2454415.368793-.6108041.2861005-.9584595-.0826925-.3476553-.3445754-.6247861-.687-.727-.3424246-.1022138-.7133684-.013982-.9731005.2314595z"/></g></g></svg>