<svg id="Warstwa_1" data-name="Warstwa 1" xmlns="http://www.w3.org/2000/svg" viewBox="0 0 920.56 423.89"><defs><style>.cls-1{fill:#1d1d1b;}</style></defs><title>Logo1000x500Black</title><path class="cls-1" d="M83.71,215l4.39-74.84,3.63-39.9q1.58,9.08,2.3,12.68t1.3,6l10.4,42.2,10.62,47.39,75.78-14.9,11.63-35.08L222.65,100q.3,10.51.29,16.42,0,13.55-1.75,62.3c-.12,3.23-.23,6.34-.35,9.34l51.61-10.15q.46-21.44,1.27-50.68.86-34.86,3.6-83.4-25.06.28-39.18.29-20.74,0-42.35-.29-3.6,13.26-5.7,19.66t-9.88,27.15q-7.8,20.75-13,37T155.68,166.5q-6.18-33-9.27-46.6t-8.19-32.26q-5.1-18.66-6.39-25.06t-3.16-18.8q-25.87.28-38.45.29-15.18,0-41.78-.29L44,110.32l-8.86,101L33.5,224.85Z" transform="translate(-33.5 -40.04)"/><path class="cls-1" d="M43.25,240.22q9.42-.12,14.27-.12,5.46,0,25.35.29l.19-8Z" transform="translate(-33.5 -40.04)"/><path class="cls-1" d="M120.06,225.12l3.43,15.27q18.44-.28,27.36-.29,7.07,0,25.78.29L186,212.15Z" transform="translate(-33.5 -40.04)"/><path class="cls-1" d="M272.12,195.21l-52,10.22q-1.09,26-1.9,35,16.13-.28,27.22-.29,7.64,0,26.65.29-.28-14-.29-19.3Q271.84,211.28,272.12,195.21Z" transform="translate(-33.5 -40.04)"/><path class="cls-1" d="M474.85,155a70.39,70.39,0,0,1-5.17,14.57,51.86,51.86,0,0,1-20.31,22.47,55.88,55.88,0,0,1-29.31,8,59.58,59.58,0,0,1-28.38-7.13,46.3,46.3,0,0,1-18.83-17.84l-62.2,12.23q7.05,16.26,22.48,29.66A100.7,100.7,0,0,0,372,237.73a168.39,168.39,0,0,0,46.67,6.4A170.29,170.29,0,0,0,466,237.58q22.77-6.56,39.18-20.67a93.33,93.33,0,0,0,25.14-34.35A109.51,109.51,0,0,0,539,142.42Z" transform="translate(-33.5 -40.04)"/><path class="cls-1" d="M366.66,159a63.74,63.74,0,0,1-1.48-13.84,68.76,68.76,0,0,1,7.2-31A53.94,53.94,0,0,1,393,91.53a56.51,56.51,0,0,1,30-8.14,55.67,55.67,0,0,1,28.23,7.2,46.94,46.94,0,0,1,19,20.24,62.56,62.56,0,0,1,6.43,26.57l61.75-12.15a91.72,91.72,0,0,0-7.25-27.89A88.34,88.34,0,0,0,507.2,66a99.77,99.77,0,0,0-37.31-19.8A158.15,158.15,0,0,0,425.53,40q-36,0-64.74,13.39T317.43,90.66q-14.62,23.85-14.62,55.39a114.66,114.66,0,0,0,2.64,25Z" transform="translate(-33.5 -40.04)"/><path class="cls-1" d="M629.12,106.4l-3.7-11.88q-7.21-22.63-9.81-31.28-1.87-6.63-5.2-19.46-20,.28-29.35.29-15.25,0-34.83-.29l26.24,73.76Z" transform="translate(-33.5 -40.04)"/><path class="cls-1" d="M765.66,79.54Q775.74,60,784.47,43.78q-23.49.28-31.42.29-12.67,0-33.58-.29-3.6,9.22-5.25,13.12c-1.1,2.59-2.09,4.9-3,6.91L698,92.84Z" transform="translate(-33.5 -40.04)"/><path class="cls-1" d="M689.37,111.83l-28.32,62.11-6.62,16.57q-4.62-17.14-7.8-27.82l-12.44-40-56.06,11,30.94,89.11,5.34,17.57q26.79-.28,36.44-.29,10.38,0,34.58.29,8.93-19.72,16.12-34.14l49.67-98.52,4.56-9Z" transform="translate(-33.5 -40.04)"/><path class="cls-1" d="M794.1,74.18,948.4,43.83q-31.65.24-71.88.24-48.24,0-82.23-.29l.15,12.68C794.44,60.49,794.33,66.41,794.1,74.18Z" transform="translate(-33.5 -40.04)"/><path class="cls-1" d="M793.54,91.58c-.22,6-.47,12.65-.76,20q-1.66,41.55-3.33,66.62t-5.27,62.22l20.46-.14L868,240.1q41.93,0,77.06.29,1.15-22.75,2.88-44.08-15.54,1-22.16,1.16l-29.8.72q-23,.44-30.37.43H849.06l1.72-35q24.62-1,44.48-1,13.38,0,38.29.29,1.29-25.5,2.74-43.93-34.87,1-42.94,1-22.62,0-39.62-.44l1.75-33.13q15.4-.57,22.69-.64t28-.08q18.87,0,46.67,1.16c0-3.45.09-6.84.29-10.2L954,61c0-.35,0-.67.06-1Z" transform="translate(-33.5 -40.04)"/><path class="cls-1" d="M538.78,365.48c0-.17,0-.33,0-.5a68.73,68.73,0,0,1,7.2-31,54,54,0,0,1,20.6-22.62,56.6,56.6,0,0,1,30-8.14,55.67,55.67,0,0,1,28.23,7.21,46.92,46.92,0,0,1,19,20.23,60.66,60.66,0,0,1,4.77,13.28l61.14-12a84.52,84.52,0,0,0-5-14.71,88.17,88.17,0,0,0-23.91-31.33A99.65,99.65,0,0,0,643.48,266a158.52,158.52,0,0,0-44.36-6.19q-36,0-64.75,13.39T491,310.46Q476.4,334.3,476.4,365.84c0,4,.2,8,.57,11.8Z" transform="translate(-33.5 -40.04)"/><path class="cls-1" d="M650.2,360.86a69,69,0,0,1-6.93,28.53A51.86,51.86,0,0,1,623,411.86a55.94,55.94,0,0,1-29.32,8,59.45,59.45,0,0,1-28.37-7.13,46.19,46.19,0,0,1-19.95-19.8,57.25,57.25,0,0,1-4.19-10.61l-61.22,12a95,95,0,0,0,3.4,10.52q6.92,17.58,23.41,31.91a100.61,100.61,0,0,0,38.82,20.74,168.37,168.37,0,0,0,46.66,6.41,170.68,170.68,0,0,0,47.39-6.55,102.93,102.93,0,0,0,39.18-20.67,93.4,93.4,0,0,0,25.14-34.36,111.32,111.32,0,0,0,8.71-44.43c0-3.17-.12-6.26-.34-9.27Z" transform="translate(-33.5 -40.04)"/><path class="cls-1" d="M949.78,284l1.65-20.47q-23.31.3-28.2.29-10.65,0-28.35-.29,0,10.46-.66,31.4Z" transform="translate(-33.5 -40.04)"/><path class="cls-1" d="M893.62,312.38c-.13,3.69-.28,7.53-.43,11.57q-1.71,43.67-3.33,67.87l-8.47-16.43L851.31,320.7l-107.8,21.2-4.82,88-2.88,30.24q21.72-.29,29.63-.28,9.36,0,27.2.28l1.47-57.49,3.1-68.3q7,14,13.67,25.65,10.07,18.45,22,38.62l24.16,41.06q3.6,6.34,11.08,20.46,23.93-.29,37.47-.28,16.29,0,35,.28l.86-34.42L948,306.5l.39-4.89Z" transform="translate(-33.5 -40.04)"/><path class="cls-1" d="M842.73,305.1,819.9,263.57q-22.21.3-34.48.29-17.17,0-39.53-.29V286l-1.47,38.39Z" transform="translate(-33.5 -40.04)"/></svg>